# xmcd
#
# Track frame offsets: 
#        150
#        18457
#        32170
#        45842
#        61980
#        76895
#        98690
#        113930
#        135250
#        148927
#        163337
#
# Disc length: 2451 seconds
#
# Revision: 3
# Processed by: cddbd v1.5.1PL0 Copyright (c) Steve Scherf et al.
# Submitted via: ExactAudioCopy v0.95a5
#
DISCID=8a09910b
DTITLE=Various Artist - The Unissued 1963 Blues Festival
DYEAR=1999
DGENRE=Blues
TTITLE0=Memphis Slim - Wish Me Well
TTITLE1=Memphis Slim - I Wrote This Song
TTITLE2=Memphis Slim - All By Myself
TTITLE3=Sonny Boy Williamson - 99
TTITLE4=Sonny Boy Williamson - Bye Bye Bird
TTITLE5=Memphis Slim - In the Evening
TTITLE6=Matt "Guitar" Murphy - Grooving On Bounce (Instrumental)
TTITLE7=Matt "Guitar" Murphy - Taking Off (Instrumental)
TTITLE8=Sonny Boy Williamson - All My Love In Vain
TTITLE9=Sonny Boy Williamson - Your Funeral and My Trial
TTITLE10=Sonny Boy Williamson - Don't Start Me To Talking
EXTD=LABEL =M. I. L. Multimedia, LLC\nID =mil6105\nUPC =795676-6105
EXTD=22\nCOPYRIGHT =1999\n*****\nLive performance recording at Oberha
EXTD=usen, West Germany, during the '63 American Folk Blues Festival e
EXTD=uropean tour.
EXTT0=
EXTT1=
EXTT2=
EXTT3=
EXTT4=
EXTT5=
EXTT6=
EXTT7=
EXTT8=
EXTT9=
EXTT10=
PLAYORDER=
